<svg width="24" height="22" viewBox="0 0 24 22" fill="none" xmlns="http://www.w3.org/2000/svg">
<path d="M22.7742 5.45961C22.5065 6.27287 22.2388 7.08613 21.9757 7.89939C21.2741 10.0758 20.5817 12.2568 19.8847 14.4332C19.7185 14.9507 19.5293 15.094 18.9892 15.094C15.6151 15.094 12.2409 15.094 8.8668 15.0893C8.67756 15.0893 8.59448 15.1448 8.53909 15.325C8.37292 15.8194 8.18829 16.3092 7.99904 16.8452C8.10982 16.8452 8.19752 16.8452 8.28522 16.8452C11.8348 16.8452 15.3889 16.8452 18.9385 16.8452C19.0308 16.8452 19.1231 16.8452 19.2154 16.8545C19.5339 16.8961 19.7555 17.1456 19.7462 17.4413C19.737 17.7417 19.5062 17.9866 19.1923 18.0097C18.9846 18.0236 18.7723 18.0143 18.5184 18.0143C18.9662 18.5827 19.1416 19.1834 18.9985 19.8534C18.8877 20.3802 18.6061 20.8099 18.163 21.1195C17.3645 21.6786 16.3352 21.6601 15.5228 20.9393C14.7335 20.2415 14.6689 19.2157 15.3566 18.0328C13.8611 18.0328 12.3702 18.0328 10.8516 18.0328C11.3224 18.6658 11.4978 19.3405 11.2393 20.0937C11.087 20.5373 10.8101 20.8931 10.4269 21.1518C9.60533 21.7063 8.53447 21.6093 7.80979 20.9069C7.19128 20.3108 6.81739 19.1695 7.68978 18.0143C7.52822 18.0143 7.39437 18.0143 7.2559 18.0143C6.73431 18.0051 6.48044 17.6493 6.65122 17.1548C6.86817 16.5403 7.08973 15.9257 7.31129 15.3158C7.33436 15.2511 7.35282 15.1864 7.38052 15.094C7.26974 15.094 7.17743 15.094 7.08973 15.094C6.69739 15.0847 6.42967 14.8629 6.36043 14.484C6.1158 13.1671 5.87577 11.8502 5.63575 10.5332C5.21571 8.24133 4.79106 5.94942 4.37564 3.65288C4.35256 3.5235 4.29717 3.46343 4.17716 3.41722C3.2817 3.07066 2.38624 2.71486 1.49077 2.35906C1.11689 2.2112 0.936875 1.8785 1.01996 1.53656C1.12612 1.10683 1.54616 0.889649 1.98466 1.056C2.54778 1.26855 3.10629 1.49497 3.66481 1.71677C4.15408 1.90622 4.63874 2.10492 5.12802 2.28975C5.43728 2.40527 5.60806 2.62245 5.66806 2.94128C6.08349 5.20547 6.49891 7.47428 6.91433 9.73847C7.14512 10.9999 7.37591 12.2614 7.60208 13.5229C7.62516 13.6569 7.68055 13.7031 7.82364 13.7031C11.3732 13.6985 14.9273 13.6985 18.4769 13.7031C18.5923 13.7031 18.6661 13.6846 18.7077 13.5506C19.5062 11.0462 20.3094 8.5463 21.1079 6.04183C21.1125 6.02797 21.1079 6.01411 21.1079 5.97252C20.9509 5.96328 20.794 5.94942 20.6371 5.94018C18.1584 5.8339 15.6797 5.73224 13.201 5.62596C11.664 5.56127 10.1269 5.49196 8.58986 5.42265C8.15136 5.40416 7.86056 5.10381 7.87441 4.69256C7.88826 4.29517 8.20213 4.01331 8.6314 4.02717C9.32377 4.05027 10.0208 4.08724 10.7131 4.11496C12.1948 4.17965 13.6718 4.24897 15.1535 4.30904C17.4614 4.41069 19.7693 4.50773 22.0772 4.60939C22.4465 4.62325 22.6496 4.84043 22.7742 5.16388C22.7742 5.26092 22.7742 5.35796 22.7742 5.45961ZM16.9629 18.481C16.4506 18.4764 16.0259 18.8923 16.0213 19.4005C16.0167 19.9088 16.4459 20.3339 16.9537 20.3339C17.4568 20.3339 17.8768 19.9227 17.8814 19.419C17.8907 18.9107 17.4753 18.4856 16.9629 18.481ZM10.1915 19.4052C10.1915 18.8876 9.77611 18.481 9.25453 18.481C8.74679 18.4856 8.34061 18.8923 8.33599 19.4005C8.33138 19.9135 8.74679 20.3339 9.26376 20.3386C9.77612 20.3386 10.1915 19.9227 10.1915 19.4052Z" fill="black" stroke="black" stroke-width="0.5" stroke-miterlimit="10"/>
</svg>
