<svg width="19" height="22" viewBox="0 0 19 22" fill="none" xmlns="http://www.w3.org/2000/svg">
<path d="M13.8401 10.8773C15.0604 11.572 15.9935 12.5253 16.7018 13.7085C17.4579 14.978 17.9125 16.3577 18.1182 17.8092C18.2522 18.7577 18.2953 19.7206 18.3527 20.6787C18.3862 21.22 18.0752 21.5123 17.5296 21.5123C12.2275 21.5123 6.92536 21.5123 1.62322 21.5123C1.06812 21.5123 0.776217 21.2248 0.781003 20.6643C0.795359 18.7338 1.03941 16.8463 1.77156 15.0451C2.47979 13.3061 3.56606 11.8833 5.21221 10.9252C5.23614 10.9109 5.26006 10.8869 5.28399 10.8678C2.84826 8.30004 3.39379 4.37661 5.79602 2.37418C8.07862 0.462769 11.4188 0.553788 13.5865 2.59454C15.8021 4.67842 16.1658 8.33836 13.8401 10.8773ZM16.874 20.0416C16.7831 18.111 16.4816 16.2475 15.5102 14.5564C14.8594 13.4211 13.9598 12.5492 12.7682 11.9791C12.6247 11.9073 12.5194 11.9121 12.3758 11.9887C10.4952 12.9852 8.60979 12.9708 6.73394 11.9744C6.61431 11.9121 6.5186 11.8977 6.39897 11.96C5.46583 12.4055 4.68583 13.0379 4.0733 13.8714C3.18323 15.0786 2.71427 16.4535 2.47979 17.9194C2.36973 18.614 2.31231 19.323 2.22617 20.0416C7.13112 20.0416 11.9882 20.0416 16.874 20.0416ZM13.9598 6.86289C13.9598 4.43889 11.993 2.46041 9.57164 2.46041C7.15027 2.46041 5.17393 4.42931 5.17393 6.85331C5.17393 9.2773 7.1407 11.2558 9.56207 11.2558C11.9834 11.2606 13.9598 9.28688 13.9598 6.86289Z" fill="black" stroke="black" stroke-width="0.5" stroke-miterlimit="10"/>
</svg>
