<svg width="25" height="25" viewBox="0 0 25 25" fill="none" xmlns="http://www.w3.org/2000/svg">
<path d="M17.1466 18.5315C14.6183 20.4945 11.7872 21.1837 8.66956 20.4945C6.27904 19.9706 4.35119 18.6804 2.90806 16.7008C-0.0773376 12.6093 0.495514 7.00703 4.24104 3.54418C7.79928 0.252268 13.4837 0.153014 17.2016 3.25745C21.195 6.59347 22.0653 12.7692 18.5401 17.1419C18.6062 17.2136 18.6778 17.2908 18.7494 17.3625C20.3743 18.9891 22.0047 20.6158 23.6241 22.2535C23.7894 22.4189 23.9215 22.6505 23.9766 22.8766C24.0758 23.3012 23.8499 23.6927 23.4809 23.8857C23.1008 24.0842 22.6657 24.0235 22.3407 23.7092C21.8615 23.2405 21.3933 22.7663 20.9251 22.2921C19.7244 21.0955 18.5291 19.8935 17.3283 18.6969C17.2732 18.6418 17.2127 18.5921 17.1466 18.5315ZM10.8893 2.92109C6.53792 2.91006 2.96866 6.46665 2.94662 10.8448C2.92459 15.2175 6.48834 18.8072 10.8618 18.8182C15.2187 18.8292 18.799 15.2726 18.821 10.911C18.8431 6.51627 15.2848 2.93211 10.8893 2.92109Z" fill="black" stroke="black" stroke-width="0.5" stroke-miterlimit="10"/>
</svg>
