<svg width="25" height="22" viewBox="0 0 25 22" fill="none" xmlns="http://www.w3.org/2000/svg">
<path d="M0.778578 7.40214C0.853492 6.95217 0.897559 6.49778 1.01214 6.05663C1.61586 3.74498 2.96873 2.05537 5.27787 1.32747C7.74566 0.546624 9.89615 1.17747 11.6765 3.05679C11.888 3.27736 12.0731 3.52 12.2802 3.76704C12.4829 3.52882 12.668 3.2906 12.8751 3.06561C13.8578 2.00684 15.03 1.27012 16.4798 1.08483C18.7185 0.798082 20.6354 1.48187 22.1073 3.20678C23.5791 4.93169 24.011 6.96981 23.6717 9.1844C23.4557 10.5873 22.8168 11.8093 21.9795 12.9342C20.8822 14.4121 19.5425 15.6561 18.1632 16.8605C16.5371 18.2766 14.8978 19.6838 13.2629 21.0911C12.6328 21.6337 11.9585 21.6558 11.3548 21.1352C9.22192 19.2824 7.08464 17.4384 4.97822 15.5547C3.90737 14.6018 2.95111 13.5342 2.1623 12.3254C1.42196 11.1828 0.924 9.95201 0.809425 8.58443C0.805018 8.5315 0.78739 8.48297 0.77417 8.43444C0.778577 8.09034 0.778578 7.74624 0.778578 7.40214ZM12.2758 20.1515C12.3331 20.1074 12.3816 20.0721 12.4256 20.0324C14.2456 18.4574 16.0744 16.8958 17.8768 15.3076C19.1371 14.1959 20.3358 13.018 21.2656 11.6063C22.1558 10.2608 22.592 8.79619 22.3893 7.17274C22.169 5.42137 21.4198 3.96997 19.8686 3.05679C18.4232 2.20536 16.8941 2.09948 15.3605 2.84062C14.4527 3.27736 13.7829 3.98762 13.2188 4.81257C13.1395 4.93169 13.0646 5.05521 12.9809 5.16991C12.6107 5.67723 11.9497 5.67282 11.5751 5.17432C11.249 4.73758 10.9494 4.27437 10.5748 3.87733C9.37175 2.6024 7.88227 2.10831 6.16804 2.47888C4.3172 2.88032 3.10094 4.05379 2.4884 5.8184C1.7745 7.86977 2.11382 9.80202 3.29483 11.6019C4.02636 12.718 4.92534 13.6974 5.91245 14.5841C7.54295 16.0532 9.2087 17.4869 10.8568 18.9295C11.3283 19.3397 11.7999 19.7412 12.2758 20.1515Z" fill="black" stroke="black" stroke-width="0.5" stroke-miterlimit="10"/>
</svg>
